#N canvas 536 433 427 318 10;
#X obj 34 245 outlet~;
#X obj 186 79 noise~;
#X obj 34 195 +~;
#X obj 162 111 *~;
#X obj 162 228 bp~ 500 5;
#X obj 256 69 r \$1/noise/vol;
#X obj 256 116 pack 0 100;
#X obj 256 138 line~;
#X obj 256 91 dbtorms;
#X obj 162 140 *~;
#N canvas 1139 442 450 136 init 0;
#X obj 13 28 loadbang;
#X msg 14 51 90;
#X obj 16 73 s \$1/noise/vol;
#X msg 123 49 500;
#X msg 267 48 5;
#X obj 262 72 s \$1/noise/bp/Q;
#X obj 125 71 s \$1/noise/bp/freq;
#X connect 0 0 1 0;
#X connect 0 0 3 0;
#X connect 0 0 4 0;
#X connect 1 0 2 0;
#X connect 3 0 6 0;
#X connect 4 0 5 0;
#X restore 287 20 pd init;
#X obj 35 88 inlet~;
#X text 37 72 with noise;
#X obj 250 169 r \$1/noise/bp/freq;
#X obj 250 196 r \$1/noise/bp/Q;
#X text 34 38 blow with noise;
#X text 30 274 (c) GPL algorythmics \, acre \, winfried ritsch;
#X text 38 16 wg/blow/noise~ <id>;
#X text 32 50 add noise to the pressure for playing a reed;
#X connect 1 0 3 1;
#X connect 2 0 0 0;
#X connect 3 0 9 0;
#X connect 4 0 2 1;
#X connect 5 0 8 0;
#X connect 6 0 7 0;
#X connect 7 0 9 1;
#X connect 8 0 6 0;
#X connect 9 0 4 0;
#X connect 11 0 3 0;
#X connect 11 0 2 0;
#X connect 13 0 4 1;
#X connect 14 0 4 2;
