#N canvas 669 166 494 310 10;
#X declare -path data;
#X declare -lib iemlib1;
#X declare -lib iemlib2;
#X declare -lib zexy;
#X declare -stdpath iemlib;
#X declare -stdpath acre;
#X declare -path abs;
#X declare -path ../acre;
#X declare -path ../.. -path ../../acre;
#N canvas 653 297 450 201 settings 1;
#X obj 37 89 declare -path data;
#X obj 235 71 declare -lib iemlib1;
#X obj 234 93 declare -lib iemlib2;
#X obj 234 114 declare -lib zexy;
#X obj 234 140 declare -stdpath iemlib;
#X text 81 11 path and libs needed for this project;
#X text 37 135 if acre is in std path;
#X obj 38 155 declare -stdpath acre;
#X obj 37 67 declare -path abs;
#X obj 35 112 declare -path ../acre;
#X obj 37 43 declare -path ../.. -path ../../acre;
#X restore 22 26 pd settings;
#N canvas 248 267 841 408 GUI 1;
#X obj 209 118 mxr/mo/ctl;
#X obj 9 118 mxr/master/stereo_ctl;
#X obj 309 118 ds/ctl /settings;
#X text 8 326 Master with 2 channels out without in.channels;
#X text 8 341 (c) GPL \, acre winfried ritsch;
#X obj 9 67 wg/init/ctl;
#X text 88 80 Open Masterfader and play ...;
#X text 29 19 01-excercise WG Ideal String;
#X obj 423 234 wg/wave/ctl STRING;
#X obj 424 85 wg/excite/pluck_ctl P;
#X obj 564 93 wg/mic/mix_ctl MIC;
#X obj 559 184 nbx 5 14 0 100 0 0 D/decay D/decay D/decay 0 -8 0 10
-262144 -1 -1 96 256;
#X obj 584 208 nbx 5 12 0 100 0 0 F/damphigh F/damphigh high -24 8
0 10 -262144 -1 -1 53 256;
#X obj 584 220 nbx 5 12 0 100 0 0 F/damplow F/damplow low -24 8 0 10
-262144 -1 -1 19 256;
#X restore 115 52 pd GUI;
#N canvas 828 389 450 300 init 0;
#X obj 38 70 loadbang;
#X msg 47 91 \; /mxr/dsp 1 \; /mxr/fadetime 30 \;;
#X text 57 34 for some presets to store;
#X obj 199 67 del 1000;
#X msg 199 89 \; pd-GUI vis 1;
#X text 268 65 some hint for test;
#X msg 44 246 \; relroot ../;
#X text 44 144 since ds is in libs/acre/ds \, relative is ../wg;
#X msg 38 170 \; /settings/program/load symbol ../../wg/data/settings.txt
\; /settings/program/nr 0 \; /settings/program/recall bang;
#X connect 0 0 1 0;
#X connect 0 0 8 0;
#X connect 0 0 3 0;
#X connect 3 0 4 0;
#X restore 115 26 pd init;
#N canvas 580 372 442 162 MIXER 0;
#X obj 33 38 mxr/mo/master~;
#X obj 76 82 mxr/master/stereo~;
#X obj 74 118 dac~ 1 2;
#X text 61 11 simple stereo master with monitoring on channel 1;
#X connect 0 0 2 0;
#X connect 1 0 2 0;
#X connect 1 1 2 1;
#X restore 22 52 pd MIXER;
#X text 22 276 (c) GPL \, acre winfried ritsch;
#N canvas 651 539 312 123 storage 0;
#X obj 13 34 ds/storage_logic /settings;
#X obj 12 76 mxr/master/stereo_ds /settings;
#X text 11 59 mixer settings for default preset;
#X text 34 6 store and load settings;
#X restore 21 82 pd storage;
#N canvas 5 63 576 430 songs 0;
#X msg 100 209 rewind;
#X msg 109 235 stop;
#X msg 13 203 bang;
#X obj 28 56 route 0 1 2 3;
#X text 145 11 somebody out there: please dynamify the midi-files and
send them to me;
#X obj 64 318 qlist;
#X obj 63 269 s qlist/player;
#X obj 66 295 r qlist/player;
#X msg 29 80 read data/songs/the_blackthron_cane_with_a_thong.qlist
;
#X msg 53 107 read data/songs/peasant_air.qlist;
#X msg 80 136 read data/songs/munster_jig.qlist;
#X msg 103 160 read data/songs/county_of_waterford_air.qlist;
#X obj 8 32 t b f;
#X floatatom 75 32 5 0 0 0 - - -, f 5;
#X obj 8 10 r /qlistplayer/song;
#X text 61 361 notes are send to notedur with <note><vel><dur> list
within qlist;
#X obj 97 341 s /qlistplayer/end;
#X connect 0 0 6 0;
#X connect 1 0 6 0;
#X connect 2 0 6 0;
#X connect 3 0 8 0;
#X connect 3 1 9 0;
#X connect 3 2 10 0;
#X connect 3 3 11 0;
#X connect 5 1 16 0;
#X connect 7 0 5 0;
#X connect 8 0 6 0;
#X connect 9 0 6 0;
#X connect 10 0 6 0;
#X connect 11 0 6 0;
#X connect 12 0 2 0;
#X connect 12 1 3 0;
#X connect 12 1 13 0;
#X connect 14 0 12 0;
#X restore 112 83 pd songs;
#X text 103 -1 Waveguide Library for acre;
#X obj 132 237 throw~ /out/2~;
#X obj 27 236 throw~ /out/1~;
#X text 28 114 ideal string;
#N canvas 638 52 625 300 ideal 0;
#X obj 55 40 inlet~;
#X obj 359 205 outlet~;
#X obj 94 246 wg/wave/in~ STRING 1000;
#X obj 96 78 wg/wave/out~ STRING 300;
#X obj 101 152 *~ -1;
#X obj 363 166 wg/mic/mix~ MIC STRING 1000 0.1;
#X obj 355 248 throw~ /mo/mono~, f 20;
#X obj 238 131 damp/decay~ D;
#X obj 242 210 hip~ 10;
#X obj 232 155 *~ -1;
#X obj 245 109 damp/filt~ F;
#X text 161 36 rigid termination in combination with decay for damping
\, filt for frequency scaling \, Reflection;
#X connect 0 0 2 0;
#X connect 3 0 4 0;
#X connect 3 1 10 0;
#X connect 4 0 2 0;
#X connect 5 0 1 0;
#X connect 7 0 9 0;
#X connect 8 0 2 1;
#X connect 9 0 8 0;
#X connect 10 0 7 0;
#X restore 129 202 pd ideal string;
#X obj 29 157 wg/excite/pluck~ P;
#X obj 181 158 wg/excite/pluck_ds /settings P;
#X connect 11 0 8 0;
#X connect 12 0 11 0;
#X connect 12 0 9 0;
