#N canvas 871 496 491 348 10;
#X obj 61 204 line~;
#X obj 66 62 r \$1/position;
#X obj 62 180 pack 1 10;
#X obj 221 224 -~;
#X obj 222 187 line~;
#X obj 135 289 outlet~;
#X obj 61 240 vd~ \$2/forward;
#X obj 223 246 vd~ \$2/backward;
#X obj 63 86 min 1;
#X obj 62 159 * \$3;
#X obj 119 88 t b f;
#X obj 10 62 f \$4;
#X obj 221 165 pack \$3 10;
#X obj 189 63 r \$2/delay;
#X obj 286 62 r \$1/fadetime;
#X obj 61 114 max -1;
#X text 187 110 negativ position is inverse phase;
#X obj 10 37 wg/init/bang;
#X text 5 14 wg/mic/mix~ <mic-name> <wg-name> <delay (ms)> <position
0..1>, f 64;
#X text 207 283 (c) GPL \, acre winfried ritsch;
#X connect 0 0 3 1;
#X connect 0 0 6 0;
#X connect 1 0 8 0;
#X connect 2 0 0 0;
#X connect 3 0 7 0;
#X connect 4 0 3 0;
#X connect 6 0 5 0;
#X connect 7 0 5 0;
#X connect 8 0 15 0;
#X connect 9 0 2 0;
#X connect 10 0 9 0;
#X connect 10 1 9 1;
#X connect 11 0 8 0;
#X connect 12 0 4 0;
#X connect 13 0 10 0;
#X connect 13 0 12 0;
#X connect 14 0 2 1;
#X connect 14 0 12 1;
#X connect 15 0 9 0;
#X connect 17 0 11 0;
#X connect 17 0 12 0;
