#N canvas 953 566 484 300 10;
#X obj 28 29 inlet~;
#X obj 26 216 outlet~;
#X obj 129 50 r \$1/decay;
#X obj 27 143 *~ 1;
#X obj 130 96 max 0;
#X obj 130 75 min 100;
#X obj 130 188 dbtorms;
#X obj 164 163 + 94;
#X obj 130 118 sel 0;
#X msg 130 151 0;
#X obj 164 141 * 0.06;
#X text 127 27 Note: decay is loss of energy;
#X text 37 6 wg/damp/decay~ <id>;
#X text 29 235 (c) GPL \, acre winfried ritsch;
#X connect 0 0 3 0;
#X connect 2 0 5 0;
#X connect 3 0 1 0;
#X connect 4 0 8 0;
#X connect 5 0 4 0;
#X connect 6 0 3 1;
#X connect 7 0 6 0;
#X connect 8 0 9 0;
#X connect 8 1 10 0;
#X connect 9 0 6 0;
#X connect 10 0 7 0;
