#N canvas 1117 460 450 403 10;
#X obj 28 29 inlet~;
#X obj 26 346 outlet~;
#X obj 160 118 min 1;
#X obj 160 140 max 0;
#X obj 160 206 mtof;
#X obj 160 184 + 130;
#X obj 160 162 * -127;
#X obj 300 145 min 1;
#X obj 332 239 mtof;
#X obj 300 96 r \$1/damplow;
#X obj 160 74 r \$1/damphigh;
#X obj 26 234 lp1~ 10000;
#X obj 300 167 max 0;
#X obj 300 189 sel 0;
#X msg 294 218 0;
#X obj 332 218 * 128;
#X text 37 6 wg/damp <id>;
#X text 184 36 decay is loss of energy;
#X text 79 323 0..means no hip \, sometimes needed;
#X obj 26 324 hp1~ 1;
#X text 149 9 simple damping with low and highpass and faktor;
#X obj 300 118 * 0.01;
#X text 298 76 0... 100;
#X text 158 56 0... 100;
#X obj 160 96 * 0.01;
#X text 92 345 (c) GPL \, acre winfried ritsch;
#X connect 0 0 11 0;
#X connect 2 0 3 0;
#X connect 3 0 6 0;
#X connect 4 0 11 1;
#X connect 5 0 4 0;
#X connect 6 0 5 0;
#X connect 7 0 12 0;
#X connect 8 0 19 1;
#X connect 9 0 21 0;
#X connect 10 0 24 0;
#X connect 11 0 19 0;
#X connect 12 0 13 0;
#X connect 13 0 14 0;
#X connect 13 1 15 0;
#X connect 14 0 19 1;
#X connect 15 0 8 0;
#X connect 19 0 1 0;
#X connect 21 0 7 0;
#X connect 24 0 2 0;
