#N canvas 387 144 731 679 10;
#X obj 69 48 bng 15 250 50 0 empty empty empty 17 7 0 10 -262144 -1
-1;
#X obj 69 88 openpanel;
#X obj 69 308 cyclone/seq;
#X msg 69 109 set read \$1;
#X msg 69 243 read /home/winfried/repos/pd_waveguides/data/clarinet/1580_County_of_Waterford_air.mid
;
#X obj 259 50 bng 15 250 50 0 empty empty empty 17 7 0 10 -262144 -1
-1;
#X obj 259 188 bng 15 250 50 0 empty empty empty 17 7 0 10 -262144
-1 -1;
#X obj 259 169 t b b b;
#X obj 69 578 unpack f f;
#X floatatom 69 605 5 0 0 0 - - -, f 5;
#X floatatom 126 605 5 0 0 0 - - -, f 5;
#X text 68 621 pitch;
#X text 125 622 velocity;
#X obj 85 514 unpack f f;
#X floatatom 85 541 5 0 0 0 - - -, f 5;
#X floatatom 142 541 5 0 0 0 - - -, f 5;
#X text 84 556 aftert;
#X text 142 558 pitch;
#X obj 102 451 unpack f f;
#X floatatom 102 477 5 0 0 0 - - -, f 5;
#X floatatom 159 477 5 0 0 0 - - -, f 5;
#X text 101 492 value;
#X text 159 492 ctrl nr;
#X floatatom 118 424 5 0 0 0 - - -, f 5;
#X floatatom 135 402 5 0 0 0 - - -, f 5;
#X floatatom 151 379 5 0 0 0 - - -, f 5;
#X floatatom 168 356 5 0 0 0 - - -, f 5;
#X obj 69 330 cyclone/midiparse;
#X text 151 578 0;
#X text 164 514 1;
#X text 181 451 2;
#X text 165 424 3;
#X text 180 404 4;
#X text 196 380 5;
#X text 211 355 6;
#X obj 259 150 del 20;
#X text 209 401 aftertouch;
#X text 235 354 channel;
#X text 221 382 pitchbend;
#X text 197 421 program change;
#N canvas 850 572 450 300 notetimer 0;
#X obj 48 34 inlet;
#X text 147 100 fast implementation without list;
#X obj 48 120 timer;
#X obj 44 253 outlet;
#X text 46 4 noteon_timer <notenumber>;
#X obj 51 188 list append;
#X obj 43 70 t b b l;
#X obj 115 157 list prepend notedur;
#X obj 151 38 inlet;
#X connect 0 0 6 0;
#X connect 2 0 5 0;
#X connect 5 0 3 0;
#X connect 6 0 2 0;
#X connect 6 1 2 1;
#X connect 6 2 7 0;
#X connect 7 0 5 1;
#X connect 8 0 2 0;
#X restore 296 503 pd notetimer;
#N canvas 12 92 450 300 note2notesdur 0;
#X text 21 9 notes2notendur;
#X obj 50 95 inlet;
#N canvas 533 567 246 480 \$0-noteontimer 0;
#X obj 10 20 noteon_timer_dropnoteoff 21 \$0;
#X obj 10 40 noteon_timer_dropnoteoff 22 \$0;
#X obj 10 60 noteon_timer_dropnoteoff 23 \$0;
#X obj 10 80 noteon_timer_dropnoteoff 24 \$0;
#X obj 10 100 noteon_timer_dropnoteoff 25 \$0;
#X obj 10 120 noteon_timer_dropnoteoff 26 \$0;
#X obj 10 140 noteon_timer_dropnoteoff 27 \$0;
#X obj 10 160 noteon_timer_dropnoteoff 28 \$0;
#X obj 10 180 noteon_timer_dropnoteoff 29 \$0;
#X obj 10 200 noteon_timer_dropnoteoff 30 \$0;
#X obj 10 220 noteon_timer_dropnoteoff 31 \$0;
#X obj 10 240 noteon_timer_dropnoteoff 32 \$0;
#X obj 10 260 noteon_timer_dropnoteoff 33 \$0;
#X obj 10 280 noteon_timer_dropnoteoff 34 \$0;
#X obj 10 300 noteon_timer_dropnoteoff 35 \$0;
#X obj 10 320 noteon_timer_dropnoteoff 36 \$0;
#X obj 10 340 noteon_timer_dropnoteoff 37 \$0;
#X obj 10 360 noteon_timer_dropnoteoff 38 \$0;
#X obj 10 380 noteon_timer_dropnoteoff 39 \$0;
#X obj 10 400 noteon_timer_dropnoteoff 40 \$0;
#X obj 10 420 noteon_timer_dropnoteoff 41 \$0;
#X obj 10 440 noteon_timer_dropnoteoff 42 \$0;
#X obj 10 460 noteon_timer_dropnoteoff 43 \$0;
#X obj 10 480 noteon_timer_dropnoteoff 44 \$0;
#X obj 10 500 noteon_timer_dropnoteoff 45 \$0;
#X obj 10 520 noteon_timer_dropnoteoff 46 \$0;
#X obj 10 540 noteon_timer_dropnoteoff 47 \$0;
#X obj 10 560 noteon_timer_dropnoteoff 48 \$0;
#X obj 10 580 noteon_timer_dropnoteoff 49 \$0;
#X obj 10 600 noteon_timer_dropnoteoff 50 \$0;
#X obj 10 620 noteon_timer_dropnoteoff 51 \$0;
#X obj 10 640 noteon_timer_dropnoteoff 52 \$0;
#X obj 10 660 noteon_timer_dropnoteoff 53 \$0;
#X obj 10 680 noteon_timer_dropnoteoff 54 \$0;
#X obj 10 700 noteon_timer_dropnoteoff 55 \$0;
#X obj 10 720 noteon_timer_dropnoteoff 56 \$0;
#X obj 10 740 noteon_timer_dropnoteoff 57 \$0;
#X obj 10 760 noteon_timer_dropnoteoff 58 \$0;
#X obj 10 780 noteon_timer_dropnoteoff 59 \$0;
#X obj 10 800 noteon_timer_dropnoteoff 60 \$0;
#X obj 10 820 noteon_timer_dropnoteoff 61 \$0;
#X obj 10 840 noteon_timer_dropnoteoff 62 \$0;
#X obj 10 860 noteon_timer_dropnoteoff 63 \$0;
#X obj 10 880 noteon_timer_dropnoteoff 64 \$0;
#X obj 10 900 noteon_timer_dropnoteoff 65 \$0;
#X obj 10 920 noteon_timer_dropnoteoff 66 \$0;
#X obj 10 940 noteon_timer_dropnoteoff 67 \$0;
#X obj 10 960 noteon_timer_dropnoteoff 68 \$0;
#X obj 10 980 noteon_timer_dropnoteoff 69 \$0;
#X obj 10 1000 noteon_timer_dropnoteoff 70 \$0;
#X obj 10 1020 noteon_timer_dropnoteoff 71 \$0;
#X obj 10 1040 noteon_timer_dropnoteoff 72 \$0;
#X obj 10 1060 noteon_timer_dropnoteoff 73 \$0;
#X obj 10 1080 noteon_timer_dropnoteoff 74 \$0;
#X obj 10 1100 noteon_timer_dropnoteoff 75 \$0;
#X obj 10 1120 noteon_timer_dropnoteoff 76 \$0;
#X obj 10 1140 noteon_timer_dropnoteoff 77 \$0;
#X obj 10 1160 noteon_timer_dropnoteoff 78 \$0;
#X obj 10 1180 noteon_timer_dropnoteoff 79 \$0;
#X obj 10 1200 noteon_timer_dropnoteoff 80 \$0;
#X obj 10 1220 noteon_timer_dropnoteoff 81 \$0;
#X obj 10 1240 noteon_timer_dropnoteoff 82 \$0;
#X obj 10 1260 noteon_timer_dropnoteoff 83 \$0;
#X obj 10 1280 noteon_timer_dropnoteoff 84 \$0;
#X obj 10 1300 noteon_timer_dropnoteoff 85 \$0;
#X obj 10 1320 noteon_timer_dropnoteoff 86 \$0;
#X obj 10 1340 noteon_timer_dropnoteoff 87 \$0;
#X obj 10 1360 noteon_timer_dropnoteoff 88 \$0;
#X obj 10 1380 noteon_timer_dropnoteoff 89 \$0;
#X obj 10 1400 noteon_timer_dropnoteoff 90 \$0;
#X obj 10 1420 noteon_timer_dropnoteoff 91 \$0;
#X obj 10 1440 noteon_timer_dropnoteoff 92 \$0;
#X obj 10 1460 noteon_timer_dropnoteoff 93 \$0;
#X obj 10 1480 noteon_timer_dropnoteoff 94 \$0;
#X obj 10 1500 noteon_timer_dropnoteoff 95 \$0;
#X obj 10 1520 noteon_timer_dropnoteoff 96 \$0;
#X obj 10 1540 noteon_timer_dropnoteoff 97 \$0;
#X obj 10 1560 noteon_timer_dropnoteoff 98 \$0;
#X obj 10 1580 noteon_timer_dropnoteoff 99 \$0;
#X obj 10 1600 noteon_timer_dropnoteoff 100 \$0;
#X obj 10 1620 noteon_timer_dropnoteoff 101 \$0;
#X obj 10 1640 noteon_timer_dropnoteoff 102 \$0;
#X obj 10 1660 noteon_timer_dropnoteoff 103 \$0;
#X obj 10 1680 noteon_timer_dropnoteoff 104 \$0;
#X obj 10 1700 noteon_timer_dropnoteoff 105 \$0;
#X obj 10 1720 noteon_timer_dropnoteoff 106 \$0;
#X obj 10 1740 noteon_timer_dropnoteoff 107 \$0;
#X obj 10 1760 noteon_timer_dropnoteoff 108 \$0;
#X restore 55 179 pd \$0-noteontimer;
#N canvas 786 53 450 300 create 0;
#X obj 29 110 for++ 21 108 10;
#X obj 27 235 s pd-\$0-noteontimer;
#X obj 29 70 t b b;
#X msg 81 78 clear;
#X obj 32 137 t f f;
#X obj 86 137 - 20;
#X obj 32 185 pack 10 1;
#X obj 32 40 bng 15 250 50 0 empty empty empty 17 7 0 10 -262144 -1
-1;
#X obj 87 158 * 20;
#X msg 32 206 obj 10 \$2 noteon_timer_dropnoteoff \$1 $\\\$0;
#X connect 0 0 4 0;
#X connect 2 0 0 0;
#X connect 2 1 3 0;
#X connect 3 0 1 0;
#X connect 4 0 6 0;
#X connect 4 1 5 0;
#X connect 5 0 8 0;
#X connect 6 0 9 0;
#X connect 7 0 2 0;
#X connect 8 0 6 1;
#X connect 9 0 1 0;
#X restore 138 106 pd create noteontimer;
#X obj 50 139 s \$0/notein;
#X obj 56 225 r \$0/noteout;
#X obj 56 259 outlet;
#X text 43 48 takes <midi note number> <velocity 0=noteoff>;
#X text 111 264 <midi note number> <velocity> <duration>;
#X obj 305 96 inlet;
#X obj 305 118 s \$0-reset;
#X connect 1 0 4 0;
#X connect 5 0 6 0;
#X connect 9 0 10 0;
#X restore 296 478 pd note2notesdur;
#X obj 475 342 qlist;
#X msg 303 188 clear;
#X msg 346 113 set write \$1.qlist;
#X msg 346 134 write /home/winfried/repos/pd_waveguides/data/clarinet/1580_County_of_Waterford_air.mid.qlist
;
#X obj 473 318 r \$0-qlist;
#X obj 346 218 s \$0-qlist;
#X obj 296 550 list trim;
#X obj 296 572 s \$0-qlist;
#X obj 296 528 list prepend add;
#X obj 453 561 r notedur;
#X obj 453 584 print pnotedur;
#X text 64 27 1.) open Midifile;
#X text 256 27 2.) Play and convert;
#X obj 422 48 bng 15 250 50 0 empty empty empty 17 7 0 10 -262144 -1
-1;
#X text 419 27 3.) write to qlistfile;
#X obj 511 47 bng 15 250 50 0 empty empty empty 17 7 0 10 -262144 -1
-1;
#X text 456 48 or;
#X text 541 46 save to;
#X obj 512 87 savepanel;
#X obj 512 109 t b a;
#X text 469 445 TEST File;
#X msg 442 467 print;
#X msg 560 466 bang;
#X msg 496 489 next;
#X msg 497 466 rewind;
#X obj 454 536 s \$0-qlist;
#X text 436 652 (c) copyleft \, winfried ritsch;
#X text 70 5 convert MIDI-File to Qlist while playing recording;
#X obj 354 331 tgl 60 0 empty empty converting 0 7 0 10 -262144 -1
-1 0 1;
#X msg 170 309 0;
#X msg 273 306 1;
#X obj 32 489 vsl 15 128 0 127 0 0 empty empty empty 0 -9 0 10 -262144
-1 -1 6300 1;
#X obj 48 489 vsl 15 128 0 127 0 0 empty empty empty 0 -9 0 10 -262144
-1 -1 0 1;
#X text 75 655 NOTE: needs external Library cyclones sequencer;
#X text 476 368 qlist record and write;
#X connect 0 0 1 0;
#X connect 1 0 3 0;
#X connect 1 0 44 0;
#X connect 2 0 27 0;
#X connect 2 1 71 0;
#X connect 3 0 4 0;
#X connect 4 0 2 0;
#X connect 5 0 4 0;
#X connect 5 0 35 0;
#X connect 6 0 2 0;
#X connect 6 0 72 0;
#X connect 7 0 6 0;
#X connect 7 1 40 1;
#X connect 7 2 43 0;
#X connect 8 0 9 0;
#X connect 8 0 73 0;
#X connect 8 1 10 0;
#X connect 10 0 74 0;
#X connect 13 0 14 0;
#X connect 13 1 15 0;
#X connect 18 0 19 0;
#X connect 18 1 20 0;
#X connect 27 0 8 0;
#X connect 27 0 41 0;
#X connect 27 1 13 0;
#X connect 27 2 18 0;
#X connect 27 3 23 0;
#X connect 27 4 24 0;
#X connect 27 5 25 0;
#X connect 27 6 26 0;
#X connect 35 0 7 0;
#X connect 40 0 50 0;
#X connect 41 0 40 0;
#X connect 43 0 47 0;
#X connect 44 0 45 0;
#X connect 45 0 47 0;
#X connect 46 0 42 0;
#X connect 48 0 49 0;
#X connect 50 0 48 0;
#X connect 51 0 52 0;
#X connect 55 0 45 0;
#X connect 57 0 60 0;
#X connect 60 0 61 0;
#X connect 61 0 45 0;
#X connect 61 1 44 0;
#X connect 63 0 67 0;
#X connect 64 0 67 0;
#X connect 65 0 67 0;
#X connect 66 0 67 0;
#X connect 71 0 70 0;
#X connect 72 0 70 0;
