#N canvas 1187 336 657 341 10;
#X obj 44 133 sel 0;
#X obj 48 34 inlet;
#X obj 39 218 timer;
#X obj 38 311 outlet;
#X obj 48 64 route \$1;
#X text 46 4 noteon_timer <notenumber>;
#X obj 39 240 t b f;
#X obj 38 277 pack \$1 64 70;
#X obj 132 35 r \$2/notein;
#X obj 39 187 t b;
#X obj 106 310 s \$2/noteout;
#X obj 118 85 r \$2/reset;
#X msg 118 108 0;
#X obj 48 85 t f b;
#X obj 68 188 spigot;
#X text 103 129 test of noteon has been send;
#X text 117 69 reset running notes;
#X text 91 214 time_notes;
#X obj 84 113 f 0;
#X connect 0 0 14 0;
#X connect 0 1 7 1;
#X connect 0 1 9 0;
#X connect 1 0 4 0;
#X connect 2 0 6 0;
#X connect 4 0 13 0;
#X connect 6 0 7 0;
#X connect 6 1 7 2;
#X connect 7 0 3 0;
#X connect 7 0 10 0;
#X connect 8 0 4 0;
#X connect 9 0 2 0;
#X connect 11 0 12 0;
#X connect 12 0 18 1;
#X connect 13 0 18 1;
#X connect 13 0 0 0;
#X connect 13 1 18 0;
#X connect 14 0 2 1;
#X connect 18 0 14 1;
