#N canvas 721 151 721 433 10;
#X obj 251 54 r \$1/wg/block;
#X text 257 38 for fine ctl;
#X obj 190 53 r \$1/on;
#X obj 107 96 s \$1/on;
#X obj 108 53 loadbang;
#X msg 108 75 1;
#X obj 251 76 pp set;
#X obj 190 99 block~ 4;
#X obj 441 348 outlet~;
#N canvas 934 246 626 343 control 0;
#X obj 56 74 min 1;
#X obj 56 96 max 0;
#X obj 56 144 * 5;
#X obj 113 119 t b f;
#X obj 74 178 s \$1/A/delay;
#X obj 56 252 s \$1/B/delay;
#X obj 56 209 * -1;
#X obj 56 231 + 5;
#X obj 114 97 r \$1/delay;
#X obj 56 52 r \$1/pos;
#X text 61 15 delay = delay A + delay B;
#X text 214 78 frequency to delay;
#X text 171 53 split delay in Part A and B;
#X obj 208 96 r \$1/note;
#X obj 208 118 mtof;
#X text 281 95 midi note nr;
#X obj 208 209 / 100;
#X obj 208 165 r \$1/freq;
#X obj 207 239 s \$1/delay;
#X text 55 35 split position 0..1;
#X text 272 188 1000ms/2 since half wavelength;
#X msg 208 187 500 \$1;
#X obj 207 142 s \$1/freq;
#X connect 0 0 1 0;
#X connect 1 0 2 0;
#X connect 2 0 4 0;
#X connect 2 0 6 0;
#X connect 3 0 2 0;
#X connect 3 1 2 1;
#X connect 3 1 7 1;
#X connect 6 0 7 0;
#X connect 7 0 5 0;
#X connect 8 0 3 0;
#X connect 9 0 0 0;
#X connect 13 0 14 0;
#X connect 14 0 22 0;
#X connect 16 0 18 0;
#X connect 17 0 21 0;
#X connect 21 0 16 0;
#X restore 15 50 pd control;
#X obj 534 349 outlet~;
#X obj 425 226 wg/damp/simple~ \$1/damp;
#X text 20 357 (c) GPL \, acre winfried ritsch;
#X obj 295 291 wg/wave/in~ \$1/B \$2;
#X obj 9 204 wg/wave/out~ \$1/A 2;
#X text 14 13 wg/string/bowed~ <id> <maxlength ms>;
#X text 97 154 waveguide split to insert bow on string;
#N canvas 789 333 450 300 bridge-filter 0;
#X obj 37 26 inlet~;
#X obj 36 184 outlet~;
#X obj 37 76 lop~ 5000;
#X obj 36 137 hip~ 20;
#X text 55 52 not implemented \, but lowpass+hp mostly needed;
#X connect 0 0 2 0;
#X connect 2 0 3 0;
#X connect 3 0 1 0;
#X restore 442 322 pd bridge-filter;
#X obj 7 152 inlet~;
#X text 1 132 vel signal;
#X obj 296 198 wg/wave/out~ \$1/B 3;
#X obj 13 282 wg/wave/in~ \$1/A \$2;
#X obj 13 256 *~ -1;
#X obj 425 248 *~ -1;
#X text 531 365 debug~;
#X text 436 366 violin~;
#X obj 144 242 wg/bow/table~ \$1/bow;
#X text 23 337 Feedback Loop: -1 - WG A - bow - WG B -1*damp;
#X connect 0 0 6 0;
#X connect 2 0 7 0;
#X connect 4 0 5 0;
#X connect 5 0 3 0;
#X connect 6 0 7 0;
#X connect 11 0 17 0;
#X connect 11 0 23 0;
#X connect 14 0 22 0;
#X connect 14 1 26 0;
#X connect 17 0 8 0;
#X connect 18 0 26 2;
#X connect 20 0 26 1;
#X connect 20 1 11 0;
#X connect 22 0 21 0;
#X connect 23 0 13 1;
#X connect 26 0 13 0;
#X connect 26 1 21 1;
