#N canvas 1173 793 399 224 10;
#X text 143 10 wg/string_ctl <ID>;
#X obj 11 11 cnv 15 98 198 empty empty limited_\$1 2 8 0 8 -233017
-66577 0;
#X obj 156 43 nbx 7 14 -1e+37 1e+37 0 0 \$1/freq \$1/freq freq -24
8 0 10 -228856 -1 -1 0 256;
#X obj 36 26 nbx 3 14 -1e+37 1e+37 0 0 \$1/pos \$1/pos pos -20 8 0
10 -262144 -1 -1 0.3 256;
#X text 130 187 (c) GPL \, acre winfried ritsch;
#X obj 10 160 wg/mic/mix_ctl \$1/mic;
#X obj 10 110 wg/damp/simple_ctl \$1/damp;
#X text 113 76 limit shaper;
#X text 116 125 damping;
#X obj 10 61 wg/shape/limit_ctl \$1/shape \$1;
#X obj 81 14 tgl 15 0 \$1/on \$1/on on 17 7 0 10 -260097 -1 -1 1 1
;
#X obj 36 43 nbx 4 14 -1e+37 1e+37 0 0 \$1/note \$1/note note -24 8
0 10 -262144 -1 -1 40 256;
#X coords 0 -1 1 1 100 200 2 10 10;
