#N canvas 417 213 655 510 10;
#X obj 358 30 r \$1/wg/block;
#X text 361 7 for fine ctl;
#X obj 297 29 r \$1/on;
#X obj 218 75 s \$1/on;
#X obj 219 32 loadbang;
#X msg 219 54 1;
#X obj 358 52 pp set;
#X text 21 16 wg/string/overtone~ <id> <maxlength ms>;
#X obj 166 461 outlet~;
#X obj 404 239 inlet~;
#N canvas 970 433 626 343 control 0;
#X obj 56 74 min 1;
#X obj 56 96 max 0;
#X obj 56 144 * 5;
#X obj 113 119 t b f;
#X obj 74 178 s \$1/A/delay;
#X obj 56 252 s \$1/B/delay;
#X obj 56 209 * -1;
#X obj 56 231 + 5;
#X obj 114 97 r \$1/delay;
#X obj 56 52 r \$1/pos;
#X text 61 15 delay = delay A + delay B;
#X text 214 78 frequency to delay;
#X text 171 53 split delay in Part A and B;
#X obj 208 96 r \$1/note;
#X obj 208 118 mtof;
#X text 281 95 midi note nr;
#X obj 208 209 / 100;
#X obj 208 165 r \$1/freq;
#X obj 207 239 s \$1/delay;
#X text 55 35 split position 0..1;
#X text 272 188 1000ms/2 since half wavelength;
#X msg 208 187 500 \$1;
#X obj 207 142 s \$1/freq;
#X text 431 40 Finger;
#X obj 432 75 r \$1/press;
#X obj 433 106 max 0;
#X obj 433 128 min 100;
#X obj 433 150 s \$1/split/Z/3;
#X text 431 170 How much energy flows away;
#X connect 0 0 1 0;
#X connect 1 0 2 0;
#X connect 2 0 4 0;
#X connect 2 0 6 0;
#X connect 3 0 2 0;
#X connect 3 1 2 1;
#X connect 3 1 7 1;
#X connect 6 0 7 0;
#X connect 7 0 5 0;
#X connect 8 0 3 0;
#X connect 9 0 0 0;
#X connect 13 0 14 0;
#X connect 14 0 22 0;
#X connect 16 0 18 0;
#X connect 17 0 21 0;
#X connect 21 0 16 0;
#X connect 24 0 25 0;
#X connect 25 0 26 0;
#X connect 26 0 27 0;
#X restore 48 43 pd control;
#X obj 269 443 outlet~;
#X obj 476 211 wg/damp/simple~ \$1/damp;
#X obj 4 217 wg/damp/simple~ \$1/damp;
#X obj 167 408 wg/mic/mix~ \$1/mic \$1/A 5 0.2;
#X text 158 384 --- output at pos in with mic ---;
#X text 34 483 (c) GPL \, acre winfried ritsch;
#X text 267 464 debug monitor inside block~ sub;
#X text 84 195 shape excursion;
#X text 226 139 simplified reflections with 2 identical damper;
#X text 71 301 excite signal;
#X obj 347 161 wg/wave/out~ \$1/B 3;
#X obj 6 275 wg/wave/in~ \$1/A \$2;
#X obj 348 269 wg/wave/in~ \$1/B \$2;
#X obj 3 150 wg/wave/out~ \$1/A 2;
#X text 29 352 Feedback Loop: - Damp - WG A - reflect - WG B -;
#X obj 175 215 wg/port/split3~ \$1/split 1 1 2;
#X text 197 312 Does not work nicely \, maybe the simplification is
to much \, finger damping should be respected ?;
#X text 37 174 b;
#X text 146 175 f;
#X text 30 252 f;
#X text 141 252 b;
#X text 364 251 f;
#X text 475 251 b;
#X text 341 182 b;
#X text 462 183 f;
#X text 105 119 waveguide split siplified finger damp excursion of
string;
#X obj 297 75 switch~ 4;
#X obj 5 238 *~ -1;
#X obj 475 234 *~ -1;
#X connect 0 0 6 0;
#X connect 2 0 37 0;
#X connect 4 0 5 0;
#X connect 5 0 3 0;
#X connect 6 0 37 0;
#X connect 9 0 23 0;
#X connect 9 0 23 1;
#X connect 12 0 39 0;
#X connect 13 0 38 0;
#X connect 14 0 8 0;
#X connect 21 0 26 1;
#X connect 21 1 12 0;
#X connect 24 0 13 0;
#X connect 24 1 26 0;
#X connect 26 0 22 1;
#X connect 26 1 23 0;
#X connect 38 0 22 0;
#X connect 39 0 23 1;
