#N canvas 845 97 495 344 10;
#X obj 314 64 block~ 4;
#X obj 142 214 outlet~;
#X obj 44 145 inlet~;
#X obj 237 265 outlet~;
#X obj 375 21 r \$1/wg/block;
#X text 374 5 for fine ctl;
#X text 16 22 or pipe;
#X obj 14 103 wg/damp/simple~ \$1/damp;
#X text 9 285 (c) GPL \, acre winfried ritsch;
#X text 235 285 debug monitor inside block~ sub;
#X obj 314 20 r \$1/on;
#X obj 242 63 s \$1/on;
#X obj 243 20 loadbang;
#X msg 243 42 1;
#X obj 375 43 pp set;
#X text 16 89 simplified reflections with 2 identical damper;
#X text 45 127 excite signal;
#X obj 217 140 r \$1/closed;
#X obj 217 162 sel 0 1;
#X obj 132 163 *~ -1;
#X obj 15 184 wg/wave/in~ \$1 \$2;
#X obj 13 55 wg/wave/out~ \$1 3;
#X text 299 152 closed pipe or open;
#X text 24 236 Feedback Loop: - Damp - WG - Damp - close;
#N canvas 1015 479 402 212 control 0;
#X text 46 30 frequency to delay;
#X obj 40 48 r \$1/note;
#X obj 40 70 mtof;
#X text 113 47 midi note nr;
#X obj 40 158 / 100;
#X obj 40 114 r \$1/freq;
#X obj 40 181 s \$1/delay;
#X msg 40 136 500 \$1;
#X obj 40 90 s \$1/freq;
#X text 93 137 1000ms/2 since half at least wavelength;
#X connect 1 0 2 0;
#X connect 2 0 8 0;
#X connect 4 0 6 0;
#X connect 5 0 7 0;
#X connect 7 0 4 0;
#X restore 379 104 pd control;
#X msg 217 184 1;
#X msg 260 188 -1;
#X text 196 213 end out;
#X obj 191 104 wg/damp/simple~ \$1/damp;
#X text 16 0 wg/string/simple~ <id> <maxlength ms>;
#X connect 2 0 20 0;
#X connect 4 0 14 0;
#X connect 7 0 20 0;
#X connect 10 0 0 0;
#X connect 12 0 13 0;
#X connect 13 0 11 0;
#X connect 14 0 0 0;
#X connect 17 0 18 0;
#X connect 18 0 25 0;
#X connect 18 1 26 0;
#X connect 19 0 20 1;
#X connect 19 0 1 0;
#X connect 21 0 7 0;
#X connect 21 1 28 0;
#X connect 25 0 19 1;
#X connect 26 0 19 1;
#X connect 28 0 19 0;
