#N canvas 823 62 773 804 10;
#X obj 68 116 mtof;
#X msg 68 139 1000 \$1;
#X obj 68 161 / 100;
#X obj 131 258 * 2;
#X obj 75 307 *;
#X obj 75 282 t f f;
#X obj 122 310 *;
#X obj 122 285 t f f;
#X obj 78 335 +;
#X obj 66 185 t f f f;
#X obj 81 363 sqrt;
#X obj 317 291 * 1;
#X obj 261 473 * 1;
#X obj 65 467 * 1;
#X text 201 82 should be around 1;
#X obj 209 131 t b f;
#X obj 68 88 r \$1/frequency;
#X obj 84 435 + 0.01;
#X obj 140 428 random 200;
#X obj 140 451 - 100;
#X obj 86 411 t f b;
#X obj 269 440 + 0.01;
#X obj 325 433 random 200;
#X obj 325 456 - 100;
#X obj 271 416 t f b;
#X obj 330 259 + 0.01;
#X obj 366 196 random 200;
#X obj 366 219 - 100;
#X obj 328 174 t f b;
#X obj 351 82 r \$1/frandom;
#X obj 365 239 * 0;
#X obj 324 476 * 0;
#X obj 139 471 * 0;
#X obj 351 104 * 0.0001;
#X obj 209 99 r \$1/symmetry;
#X obj 40 579 r \$1/decay;
#X obj 214 585 r \$1/damplow;
#X obj 369 591 r \$1/damphigh;
#X obj 399 315 r \$1/diag;
#X text 466 319 Z2 since Z1 \, Z3 = 1 in patch;
#X text 155 257 plate format: 1:2;
#X text 97 388 Diag=SQZT(X^2+Y^2);
#X text 284 535 long sides;
#X text 430 518 small sides;
#X obj 161 173 r \$1/format;
#X text 162 157 length/width;
#X text 66 538 diagonales;
#X text 39 560 Damping (0..1);
#X text 214 570 0..100;
#X text 368 573 0..100;
#X text 426 564 rangelimit in wg_platte !!!;
#X text 394 297 how much energy in diagonales instead of sides;
#X text 274 58 add random for not total equally plates;
#X text 60 63 base frequency for platte;
#X obj 64 497 s \$1/F/delay;
#X obj 26 520 s \$1/E/delay;
#X obj 250 520 s \$1/D/delay;
#X obj 261 497 s \$1/B/delay;
#X obj 448 478 s \$1/A/delay;
#X obj 412 496 s \$1/C/delay;
#X obj 402 344 s \$1/P1/Z/2;
#X obj 422 368 s \$1/P2/Z/2;
#X obj 460 390 s \$1/P3/Z/2;
#X obj 487 412 s \$1/P4/Z/2;
#X obj 42 667 s \$1/P1/damp/decay;
#X obj 54 693 s \$1/P2/damp/decay;
#X obj 71 714 s \$1/P3/damp/decay;
#X obj 99 739 s \$1/P4/damp/decay;
#X obj 214 658 s \$1/P1/damp/damplow;
#X obj 226 684 s \$1/P2/damp/damplow;
#X obj 243 705 s \$1/P3/damp/damplow;
#X obj 271 730 s \$1/P4/damp/damplow;
#X obj 372 651 s \$1/P1/damp/damphigh;
#X obj 384 677 s \$1/P2/damp/damphigh;
#X obj 401 697 s \$1/P3/damp/damphigh;
#X obj 429 723 s \$1/P4/damp/damphigh;
#X obj 214 630 * 1;
#X obj 369 618 * 1;
#X obj 43 638 * 1;
#X text 66 12 wg/plate/plane_drive <id>;
#X text 62 36 make less parameter for easier playing the plate;
#X obj 528 105 r \$1/mic/position;
#X obj 538 131 s \$1/M1/position;
#X obj 505 183 s \$1/M3/position;
#X obj 521 159 s \$1/M2/position;
#X obj 161 195 t b f;
#X text 294 758 (c) GPL \, acre winfried ritsch;
#X connect 0 0 1 0;
#X connect 1 0 2 0;
#X connect 2 0 9 0;
#X connect 3 0 7 0;
#X connect 3 0 12 0;
#X connect 3 0 56 0;
#X connect 4 0 8 0;
#X connect 5 0 4 0;
#X connect 5 1 4 1;
#X connect 6 0 8 1;
#X connect 7 0 6 0;
#X connect 7 1 6 1;
#X connect 8 0 10 0;
#X connect 9 0 5 0;
#X connect 9 1 3 0;
#X connect 9 2 11 0;
#X connect 9 2 59 0;
#X connect 10 0 13 0;
#X connect 10 0 55 0;
#X connect 11 0 58 0;
#X connect 12 0 57 0;
#X connect 13 0 54 0;
#X connect 15 0 2 0;
#X connect 15 1 20 0;
#X connect 15 1 28 0;
#X connect 15 1 24 0;
#X connect 16 0 0 0;
#X connect 17 0 13 1;
#X connect 18 0 19 0;
#X connect 19 0 32 0;
#X connect 20 0 17 0;
#X connect 20 1 18 0;
#X connect 21 0 12 1;
#X connect 22 0 23 0;
#X connect 23 0 31 0;
#X connect 24 0 21 0;
#X connect 24 1 22 0;
#X connect 25 0 11 1;
#X connect 26 0 27 0;
#X connect 27 0 30 0;
#X connect 28 0 25 0;
#X connect 28 1 26 0;
#X connect 29 0 33 0;
#X connect 30 0 25 1;
#X connect 31 0 21 1;
#X connect 32 0 17 1;
#X connect 33 0 30 1;
#X connect 33 0 31 1;
#X connect 33 0 32 1;
#X connect 34 0 15 0;
#X connect 35 0 78 0;
#X connect 36 0 76 0;
#X connect 37 0 77 0;
#X connect 38 0 60 0;
#X connect 38 0 61 0;
#X connect 38 0 62 0;
#X connect 38 0 63 0;
#X connect 44 0 85 0;
#X connect 76 0 68 0;
#X connect 76 0 69 0;
#X connect 76 0 70 0;
#X connect 76 0 71 0;
#X connect 77 0 72 0;
#X connect 77 0 73 0;
#X connect 77 0 74 0;
#X connect 77 0 75 0;
#X connect 78 0 64 0;
#X connect 78 0 65 0;
#X connect 78 0 66 0;
#X connect 78 0 67 0;
#X connect 81 0 82 0;
#X connect 81 0 84 0;
#X connect 81 0 83 0;
#X connect 85 0 2 0;
#X connect 85 1 3 1;
