#N canvas 60 149 908 554 10;
#X text 141 47 Structure of plate;
#X obj 109 93 wg/port/3-damp~ \$1/P1 1 2 1;
#X obj 83 527 outlet~;
#X obj 314 527 outlet~;
#X obj 526 526 outlet~;
#X obj 51 49 inlet~;
#X obj 82 490 wg/mic/mix~ \$1/M1 \$1/F 2.23 0.3;
#X obj 310 83 wg/wave/out~ \$1/A 1;
#X text 339 95 A;
#X text 613 265 B;
#X text 357 435 C;
#X text 142 276 D;
#X obj 680 94 r \$1/on;
#X obj 680 72 s \$1/on;
#X obj 681 29 loadbang;
#X msg 681 51 1;
#X obj 441 89 wg/port/3-damp~ \$1/P2 1 2 1;
#X obj 470 429 wg/port/3-damp~ \$1/P3 1 2 1;
#X obj 107 435 wg/port/3-damp~ \$1/P4 1 2 1;
#X obj 745 87 pp set;
#X obj 679 149 switch~ 4;
#X obj 745 61 r \$1/block;
#X text 700 123 for short delays;
#X obj 524 492 wg/mic/mix~ \$1/M3 \$1/D 1 0.3;
#X obj 313 490 wg/mic/mix~ \$1/M2 \$1/B 2 0.3;
#X text 591 525 (c) GPL \, acre winfried ritsch;
#X text 82 17 wg/plate/plane~ <id> <max delay>;
#X obj 294 124 wg/wave/in~ \$1/A \$2;
#X obj 563 343 wg/wave/out~ \$1/B 2;
#X obj 313 406 wg/wave/out~ \$1/C 1;
#X obj 417 286 wg/wave/out~ \$1/F 2.23;
#X obj 233 281 wg/wave/out~ \$1/E 2.23;
#X obj 97 202 wg/wave/out~ \$1/D 2;
#X obj 314 458 wg/wave/in~ \$1/C \$2;
#X obj 417 254 wg/wave/in~ \$1/F \$2;
#X obj 233 249 wg/wave/in~ \$1/E \$2;
#X obj 554 179 wg/wave/in~ \$1/B \$2;
#X obj 107 343 wg/wave/in~ \$1/D \$2;
#X connect 1 0 37 0;
#X connect 1 1 35 0;
#X connect 1 2 27 0;
#X connect 5 0 27 0;
#X connect 5 0 35 0;
#X connect 5 0 37 0;
#X connect 6 0 2 0;
#X connect 7 0 1 2;
#X connect 7 1 16 0;
#X connect 12 0 20 0;
#X connect 14 0 15 0;
#X connect 15 0 13 0;
#X connect 16 0 27 1;
#X connect 16 1 34 1;
#X connect 16 2 36 0;
#X connect 17 0 33 1;
#X connect 17 1 35 1;
#X connect 17 2 36 1;
#X connect 18 0 37 1;
#X connect 18 1 34 0;
#X connect 18 2 33 0;
#X connect 19 0 20 0;
#X connect 21 0 19 0;
#X connect 23 0 4 0;
#X connect 24 0 3 0;
#X connect 28 0 16 2;
#X connect 28 1 17 2;
#X connect 29 0 18 2;
#X connect 29 1 17 0;
#X connect 30 0 18 1;
#X connect 30 1 16 1;
#X connect 31 0 1 1;
#X connect 31 1 17 1;
#X connect 32 0 1 0;
#X connect 32 1 18 0;
