#N canvas 759 165 609 480 10;
#X obj 43 46 inlet~;
#X obj 239 47 inlet~;
#X obj 239 365 outlet~;
#X obj 44 364 outlet~;
#X obj 327 73 dbtorms;
#X obj 43 336 *~;
#X obj 238 336 *~;
#X obj 134 77 +~;
#X obj 135 225 min~ 1;
#X obj 136 257 -~;
#X obj 327 95 max 0;
#X obj 329 206 dbtorms;
#X obj 329 228 max 0;
#X obj 136 299 +~ 1;
#X text 41 21 limit excitation of signal from one side with strength
amp;
#X obj 329 250 min 2;
#X text 339 271 Be carefull with this \, can cause instability;
#X text 380 234 0 is no effect \, 1 is limit;
#X text 380 251 2 is work against;
#X text 326 113 0...106 midi-dB;
#X text 375 90 at which excitation it will limit;
#X text 43 388 (c) GPL \, acre winfried ritsch;
#X obj 327 48 r \$1/thresh;
#X obj 329 181 r \$1/amp;
#X obj 329 290 pack 0 5;
#X obj 329 312 line~;
#X obj 137 277 *~;
#X obj 325 150 inlet~;
#X text 376 152 amp~ for damp signals;
#X text 50 2 wg/shape/limit~ <id>;
#X connect 0 0 5 0;
#X connect 0 0 7 0;
#X connect 1 0 6 0;
#X connect 1 0 7 1;
#X connect 4 0 10 0;
#X connect 5 0 3 0;
#X connect 6 0 2 0;
#X connect 7 0 8 0;
#X connect 7 0 9 1;
#X connect 8 0 9 0;
#X connect 9 0 26 0;
#X connect 10 0 8 1;
#X connect 11 0 12 0;
#X connect 12 0 15 0;
#X connect 13 0 5 1;
#X connect 13 0 6 1;
#X connect 15 0 24 0;
#X connect 22 0 4 0;
#X connect 23 0 11 0;
#X connect 24 0 25 0;
#X connect 25 0 26 1;
#X connect 26 0 13 0;
#X connect 27 0 26 1;
