#N canvas 322 52 584 667 10;
#X text 74 18 arg1: is ID of 3 Port junction like "/wg/3port/2";
#X obj 4 59 inlet~ w1;
#X obj 101 57 inlet~ w2;
#X obj 179 58 inlet~ w3;
#X obj 13 478 outlet~ wg1;
#X obj 100 478 outlet~ wg2;
#X obj 187 476 outlet~ wg3;
#X text 30 532 x1(t)*Z1*2/(Z1+Z2+Z3) - x1(t);
#X text 34 560 x1(t)*(2*Z1/(Z1+Z2+Z3) -1);
#X text 74 33 arg2-4: are initial resitances for junction;
#X text 39 511 formula (see julius o. smith: waveguides);
#X text 75 3 wg/port/3~ <id> <Z1> <Z2> <Z3>;
#X obj 50 179 wg/port/3~ \$1 \$2 \$3 \$4;
#X obj 56 244 wg/damp/simple~ \$1/damp;
#X obj 150 290 wg/damp/simple~ \$1/damp;
#X obj 224 340 wg/damp/simple~ \$1/damp;
#X obj 339 137 r \$1/on;
#X obj 339 115 s \$1/on;
#X obj 340 72 loadbang;
#X msg 340 94 1;
#X obj 339 159 switch~;
#X connect 1 0 12 0;
#X connect 2 0 12 1;
#X connect 3 0 12 2;
#X connect 12 0 13 0;
#X connect 12 1 14 0;
#X connect 12 2 15 0;
#X connect 13 0 4 0;
#X connect 14 0 5 0;
#X connect 15 0 6 0;
#X connect 16 0 20 0;
#X connect 18 0 19 0;
#X connect 19 0 17 0;
