#N canvas 212 286 524 667 10;
#X obj 9 431 -~;
#X obj 95 431 -~;
#X obj 182 429 -~;
#X obj 26 179 r \$1/Z/1;
#X obj 290 208 f \$2;
#X obj 352 211 f \$3;
#X obj 418 206 f \$4;
#X text 311 133 default;
#X text 74 18 arg1: is ID of 3 Port junction like "/wg/3port/2";
#X obj 294 181 t b b b;
#X obj 102 178 r \$1/Z/2;
#X obj 204 181 r \$1/Z/3;
#X obj 75 365 *~ 0.666666;
#X obj 232 373 max 1e-07;
#X msg 232 394 2 \$1;
#X obj 232 416 /;
#X obj 6 282 *~;
#X obj 67 287 *~;
#X obj 139 289 *~;
#X obj 26 248 line~;
#X obj 88 253 line~;
#X obj 159 252 line~;
#X obj 26 228 pack 1 10;
#X obj 102 226 pack 1 10;
#X obj 173 227 pack 1 10;
#X obj 195 120 r /wg/fadetime;
#X obj 232 321 t b f;
#X obj 232 267 t b f;
#X obj 232 298 + 1;
#X obj 232 352 + 1;
#X text 232 433 2/(Z1+Z2+Z3);
#X obj 4 59 inlet~ w1;
#X obj 101 57 inlet~ w2;
#X obj 179 58 inlet~ w3;
#X obj 13 478 outlet~ wg1;
#X obj 100 478 outlet~ wg2;
#X obj 187 476 outlet~ wg3;
#X text 30 532 x1(t)*Z1*2/(Z1+Z2+Z3) - x1(t);
#X text 34 560 x1(t)*(2*Z1/(Z1+Z2+Z3) -1);
#X text 74 33 arg2-4: are initial resitances for junction;
#X text 39 511 formula (see julius o. smith: waveguides);
#X obj 296 155 wg/init/bang;
#X text 75 3 wg/port/3~ <id> <Z1> <Z2> <Z3>;
#X obj 290 231 s \$1/Z/1;
#X obj 353 231 s \$1/Z/2;
#X obj 418 230 s \$1/Z/3;
#X connect 0 0 34 0;
#X connect 1 0 35 0;
#X connect 2 0 36 0;
#X connect 3 0 22 0;
#X connect 3 0 29 0;
#X connect 4 0 43 0;
#X connect 5 0 44 0;
#X connect 6 0 45 0;
#X connect 9 0 4 0;
#X connect 9 1 5 0;
#X connect 9 2 6 0;
#X connect 10 0 23 0;
#X connect 10 0 28 0;
#X connect 11 0 24 0;
#X connect 11 0 27 0;
#X connect 12 0 0 0;
#X connect 12 0 1 0;
#X connect 12 0 2 0;
#X connect 13 0 14 0;
#X connect 14 0 15 0;
#X connect 15 0 12 1;
#X connect 16 0 12 0;
#X connect 17 0 12 0;
#X connect 18 0 12 0;
#X connect 19 0 16 1;
#X connect 20 0 17 1;
#X connect 21 0 18 1;
#X connect 22 0 19 0;
#X connect 23 0 20 0;
#X connect 24 0 21 0;
#X connect 25 0 24 1;
#X connect 25 0 23 1;
#X connect 25 0 22 1;
#X connect 26 0 29 0;
#X connect 26 1 29 1;
#X connect 27 0 28 0;
#X connect 27 1 28 1;
#X connect 28 0 26 0;
#X connect 29 0 13 0;
#X connect 31 0 0 1;
#X connect 31 0 16 0;
#X connect 32 0 1 1;
#X connect 32 0 17 0;
#X connect 33 0 2 1;
#X connect 33 0 18 0;
#X connect 41 0 9 0;
