#N canvas 713 354 450 300 10;
#X obj 57 122 env~;
#X floatatom 57 144 5 0 0 0 - - -, f 5;
#X obj 46 214 env~;
#X floatatom 46 236 5 0 0 0 - - -, f 5;
#X obj 192 218 env~;
#X floatatom 192 240 5 0 0 0 - - -, f 5;
#X obj 185 120 env~;
#X floatatom 185 142 5 0 0 0 - - -, f 5;
#X obj 264 154 wg/port/split3_ctl s;
#X obj 42 94 noise~;
#X obj 174 90 noise~ 600;
#X obj 31 37 tgl 15 0 empty empty empty 17 7 0 10 -262144 -1 -1 0 1
;
#X obj 31 57 switch~;
#X obj 43 167 wg/port/split3~ s 1 1 1;
#X text 103 22 wg/port/split3~-help;
#X text 131 48 For testing and explaining \; -);
#X text 45 260 (c) GPL \, acre winfried ritsch;
#X connect 0 0 1 0;
#X connect 2 0 3 0;
#X connect 4 0 5 0;
#X connect 6 0 7 0;
#X connect 9 0 0 0;
#X connect 10 0 6 0;
#X connect 10 0 13 1;
#X connect 11 0 12 0;
#X connect 13 0 2 0;
#X connect 13 1 4 0;
