#N canvas 210 89 627 637 10;
#X obj 392 96 f \$2;
#X obj 454 99 f \$3;
#X obj 520 94 f \$4;
#X obj 392 70 t b b b;
#X obj 344 249 max 1e-07;
#X obj 344 292 /;
#X obj 360 478 r /wg/fadetime;
#X obj 344 197 t b f;
#X obj 344 228 + 1;
#X obj 392 49 wg/init/bang;
#X text 22 3 wg/port/split3~ <id> <Z1> <Z2> <Z3>;
#N canvas 3 52 532 114 cites 0;
#X text 24 26 J. Pakarinen \, "Physical modeling of flageolet tones
in string instruments \, " Signal Processing Conference \, 2005 13th
European \, Antalya \, 2005 \, pp. 1-4.;
#X restore 393 19 pd cites;
#X obj 8 463 inlet~;
#X obj 188 463 inlet~;
#X text 21 20 arg1: is ID of junction (see Pakarinen);
#X text 21 35 arg2-4: are initial impedances for junction;
#X obj 9 585 outlet~;
#X obj 187 597 outlet~;
#X text 377 228 Z1+Z2+Z3;
#X obj 392 119 s \$1/Z/1;
#X obj 455 119 s \$1/Z/2;
#X obj 520 118 s \$1/Z/3;
#X obj 19 76 r \$1/Z/1;
#X obj 95 75 r \$1/Z/2;
#X obj 322 85 r \$1/Z/3;
#X obj 25 521 line~;
#X obj 112 526 line~;
#X obj 25 501 pack 1 10;
#X obj 112 502 pack 1 10;
#X obj 7 547 *~;
#X obj 93 547 *~;
#X obj 204 526 line~;
#X obj 291 531 line~;
#X obj 204 506 pack 1 10;
#X obj 291 507 pack 1 10;
#X obj 186 552 *~;
#X obj 272 552 *~;
#X obj 320 112 t b b f;
#X text 110 362 2Z1/(Z1+Z2+Z3);
#X obj 111 337 *;
#X obj 294 340 *;
#X obj 19 337 - 3;
#X obj 19 359 - 2;
#X obj 20 384 * 6;
#X msg 344 270 1 \$1;
#X text 373 295 1/(Z1+Z2+Z3);
#X obj 343 312 * 2;
#X text 374 314 2/(Z1+Z2+Z3);
#X obj 220 332 - 3;
#X obj 220 377 * 6;
#X obj 220 354 - 1;
#X text 51 388 Z1-Z2-Z3/(Z1+Z2+Z3);
#X text 249 385 Z2-Z1-Z3/(Z1+Z2+Z3);
#X text 250 464 --- matrix ---;
#X floatatom 67 453 5 0 0 0 - - -, f 5;
#X floatatom 128 453 5 0 0 0 - - -, f 5;
#X floatatom 239 407 5 0 0 0 - - -, f 5;
#X floatatom 317 403 5 0 0 0 - - -, f 5;
#X text 308 364 2Z2/(Z1+Z2+Z3);
#X obj 95 103 t b f f;
#X obj 19 98 t b f f;
#X floatatom 475 215 5 0 0 0 - - -, f 5;
#X floatatom 463 251 5 0 0 0 - - -, f 5;
#X obj 344 175 + 3;
#X floatatom 162 83 5 0 0 0 - - -, f 5;
#X floatatom 259 88 5 0 0 0 - - -, f 5;
#X floatatom 21 54 5 0 0 0 - - -, f 5;
#X text 377 180 Z2+Z3;
#X obj 482 174 + 3;
#X text 288 585 (c) GPL \, acre winfried ritsch;
#X connect 0 0 19 0;
#X connect 1 0 20 0;
#X connect 2 0 21 0;
#X connect 3 0 0 0;
#X connect 3 1 1 0;
#X connect 3 2 2 0;
#X connect 4 0 44 0;
#X connect 5 0 46 0;
#X connect 5 0 43 1;
#X connect 5 0 49 1;
#X connect 6 0 34 1;
#X connect 6 0 33 1;
#X connect 6 0 28 1;
#X connect 6 0 27 1;
#X connect 7 0 8 0;
#X connect 7 1 8 1;
#X connect 8 0 4 0;
#X connect 8 0 62 0;
#X connect 9 0 3 0;
#X connect 12 0 29 0;
#X connect 12 0 30 0;
#X connect 13 0 35 0;
#X connect 13 0 36 0;
#X connect 22 0 60 0;
#X connect 22 0 66 0;
#X connect 23 0 59 0;
#X connect 23 0 64 0;
#X connect 24 0 37 0;
#X connect 24 0 65 0;
#X connect 25 0 29 1;
#X connect 26 0 30 1;
#X connect 27 0 25 0;
#X connect 28 0 26 0;
#X connect 29 0 16 0;
#X connect 30 0 17 0;
#X connect 31 0 35 1;
#X connect 32 0 36 1;
#X connect 33 0 31 0;
#X connect 34 0 32 0;
#X connect 35 0 16 0;
#X connect 36 0 17 0;
#X connect 37 0 39 0;
#X connect 37 0 41 0;
#X connect 37 0 48 0;
#X connect 37 0 40 0;
#X connect 37 1 63 0;
#X connect 37 2 41 1;
#X connect 37 2 48 1;
#X connect 37 2 63 1;
#X connect 39 0 55 0;
#X connect 39 0 28 0;
#X connect 40 0 57 0;
#X connect 40 0 33 0;
#X connect 41 0 42 0;
#X connect 42 0 43 0;
#X connect 43 0 27 0;
#X connect 43 0 54 0;
#X connect 44 0 5 0;
#X connect 46 0 40 1;
#X connect 46 0 39 1;
#X connect 48 0 50 0;
#X connect 49 0 56 0;
#X connect 49 0 34 0;
#X connect 50 0 49 0;
#X connect 59 0 39 0;
#X connect 59 0 41 0;
#X connect 59 1 40 0;
#X connect 59 1 48 0;
#X connect 59 2 42 1;
#X connect 59 2 63 0;
#X connect 60 0 50 0;
#X connect 60 1 39 0;
#X connect 60 1 41 0;
#X connect 60 2 8 0;
#X connect 60 2 50 1;
#X connect 63 0 7 0;
#X connect 63 0 61 0;
