#N canvas 608 364 566 406 10;
#X obj 26 349 outlet~;
#X text 152 90 wave-in;
#X text 89 350 wave-out;
#X obj 147 110 inlet~;
#X text 103 150 hD+;
#X obj 26 322 -~;
#X obj 68 143 -~;
#X obj 24 108 inlet~;
#X text 21 69 mouth-pressure;
#X text 20 84 (with noise);
#X obj 185 264 min~ 1;
#X obj 186 237 -~;
#X obj 252 181 -~;
#X obj 68 300 *~;
#X obj 204 214 *~ 1.4;
#X text 17 29 calculates pressure dependent reflection factor at the
mouthpeace;
#X obj 183 182 sig~ 1;
#X obj 252 141 sig~ 0.4;
#X obj 252 117 r \$1/reed/h_c;
#X text 241 252 table;
#X text 290 164 not easy behaviour \, so maybe not expose these parameter
\, here hidden for experiments, f 27;
#X text 170 346 (c) GPL \, acre winfried ritsch;
#X text 19 7 wg/reed/simple~ <id>;
#X connect 3 0 6 1;
#X connect 5 0 0 0;
#X connect 6 0 12 1;
#X connect 6 0 13 0;
#X connect 7 0 5 0;
#X connect 7 0 6 0;
#X connect 10 0 13 1;
#X connect 11 0 10 0;
#X connect 12 0 14 0;
#X connect 13 0 5 1;
#X connect 14 0 11 1;
#X connect 16 0 11 0;
#X connect 17 0 12 0;
#X connect 18 0 17 0;
