#N canvas 565 180 568 356 10;
#X obj 112 126 r \$1/attack;
#X obj 142 149 r \$1/decay;
#X obj 232 190 r \$1/release;
#X obj 61 149 r \$1/dur;
#X obj 26 302 outlet;
#X text 353 106 vel in mididB \, times in ms;
#X text 242 257 \$1/vel ... can be bang or vel;
#X obj 37 128 r \$1/vel;
#X obj 183 172 r \$1/sustain;
#X obj 25 68 inlet vel;
#X text 319 300 (c) GPL \, acre winfried ritsch;
#X obj 40 222 t b f;
#X obj 41 94 inlet dur;
#X obj 102 69 inlet atttack;
#X obj 132 95 inlet decay;
#X obj 215 69 inlet sustain;
#X obj 256 95 inlet release;
#X obj 132 222 t b f;
#X obj 86 223 t b f;
#X obj 231 224 t b f;
#X obj 182 222 t b f;
#X obj 26 173 f \$2;
#X text 28 8 wg/adsr/pack <id> <vel> <dur> <attack> <decay> <sustain>
<release>, f 66;
#X obj 26 279 pack \$2 \$3 \$4 \$5 \$6 \$7;
#X text 32 37 init or convert from individual values with vel or trigger
, f 64;
#X connect 0 0 18 0;
#X connect 1 0 17 0;
#X connect 2 0 19 0;
#X connect 3 0 11 0;
#X connect 7 0 21 0;
#X connect 8 0 20 0;
#X connect 9 0 21 0;
#X connect 11 0 23 0;
#X connect 11 1 23 1;
#X connect 12 0 11 0;
#X connect 13 0 18 0;
#X connect 14 0 17 0;
#X connect 15 0 20 0;
#X connect 16 0 19 0;
#X connect 17 0 23 0;
#X connect 17 1 23 3;
#X connect 18 0 23 0;
#X connect 18 1 23 2;
#X connect 19 0 23 0;
#X connect 19 1 23 5;
#X connect 20 0 23 0;
#X connect 20 1 23 4;
#X connect 21 0 23 0;
#X connect 23 0 4 0;
