#N canvas 151 146 678 496 10;
#X obj 19 93 inlet;
#X text 37 361 attack;
#X obj 23 303 dbtorms;
#X obj 122 429 outlet;
#X text 174 429 trigger;
#X obj 23 338 pack 1 \$3;
#X obj 122 296 f \$5;
#X text 141 369 decay;
#X obj 121 350 pack 0.5 \$4 \$3;
#X obj 121 321 dbtorms;
#X text 76 405 outlet fo vline;
#X obj 19 174 unpack \$1 \$2 \$3 \$4 \$5 \$6;
#X obj 226 350 pack 0 \$6 \$2;
#X text 112 111 if vel is 0 \, note off;
#X text 342 326 noteoff;
#X obj 19 202 moses 0;
#X obj 18 249 f 1;
#X obj 19 224 * -1;
#X text 149 138 if vel negative only set dont play;
#X obj 19 118 route bang;
#X obj 86 145 route 0;
#X obj 293 300 t b;
#X obj 325 350 pack 0 \$6;
#X text 23 454 (c) GPL algorythmics \, winfried ritsch;
#X text 21 38 drives a vline~ for envelop;
#X text 68 87 play with bang \, vel \, vel dur \, or complete adsr
parameters;
#X obj 23 406 vline~;
#X obj 23 428 outlet~;
#X text 242 186 Note: sustain in dB is relative to vel \, 100dB means
same level;
#X obj 18 270 t b b b f f;
#X obj 152 221 - 100;
#X obj 134 266 + -10;
#X text 23 62 <vel> <dur> <attack> <decay> <sustain> <release>;
#X text 20 12 wg/adsr/vgen~: <vel> <dur> <attack> <decay> <sustain>
<release>, f 65;
#X connect 0 0 19 0;
#X connect 2 0 5 0;
#X connect 5 0 26 0;
#X connect 6 0 9 0;
#X connect 8 0 26 0;
#X connect 9 0 8 0;
#X connect 11 0 15 0;
#X connect 11 1 12 2;
#X connect 11 2 8 2;
#X connect 11 2 5 1;
#X connect 11 3 8 1;
#X connect 11 4 30 0;
#X connect 11 5 12 1;
#X connect 11 5 22 1;
#X connect 12 0 26 0;
#X connect 15 0 17 0;
#X connect 15 1 16 0;
#X connect 16 0 29 0;
#X connect 17 0 16 1;
#X connect 19 0 11 0;
#X connect 19 1 20 0;
#X connect 20 0 21 0;
#X connect 20 1 11 0;
#X connect 21 0 22 0;
#X connect 22 0 26 0;
#X connect 26 0 27 0;
#X connect 29 0 3 0;
#X connect 29 1 12 0;
#X connect 29 2 6 0;
#X connect 29 3 2 0;
#X connect 29 4 31 0;
#X connect 30 0 31 1;
#X connect 31 0 6 1;
