#N canvas 337 414 450 375 10;
#X obj 101 101 cnv 15 98 198 empty empty cl:\$1 2 7 0 10 -228856 -66577
0;
#N canvas 1196 663 307 203 \$0-settings 1;
#X text 54 52 INFO only;
#X text 51 27 Clarinet Extra Parameter;
#X obj 51 71 wg/wave/ctl \$1/wg \$1;
#X restore 221 281 pd \$0-settings;
#X obj 220 221 pack 0 \$0;
#X msg 220 243 \; pd-\$2-settings vis \$1;
#X obj 104 281 tgl 15 0 empty empty par 17 7 0 10 -262144 -1 -1 1 1
;
#X obj 100 166 wg/blow/noise_ctl \$1/blow;
#X obj 100 240 wg/filt/pipebell_ctl \$1/pipebell;
#X obj 164 127 nbx 3 14 -1e+37 1e+37 0 0 \$1/detune \$1/detune detune
0 -8 0 10 -204786 -1 -1 0 256;
#X obj 100 127 nbx 3 14 -1e+37 1e+37 0 0 \$1/note \$1/note note 0 -8
0 10 -204786 -1 -1 48 256;
#X text 85 14 wg/clarinet/ctl <id>;
#X obj 100 141 wg/blow/pressure_ctl \$1/blow A;
#X text 88 316 (c) GPL algorythmics \, acre \, winfried ritsch;
#X obj 100 191 wg/damp/simple_ctl \$1/damp A;
#X connect 2 0 3 0;
#X connect 4 0 2 0;
#X coords 0 -1 1 1 100 200 2 100 100;
