#N canvas 579 356 589 445 10;
#X obj 319 293 outlet~;
#X obj 275 92 block~ 4;
#X text 49 152 forward;
#X text 175 148 backward;
#X obj 30 335 *~ -1;
#X obj 275 53 r \$1/wg/block;
#X text 270 22 if really needed higer freqs;
#X obj 31 51 inlet~;
#X obj 52 213 inlet~;
#N canvas 758 437 450 300 control 0;
#X obj 32 44 r \$1/note;
#X obj 32 94 mtof;
#X text 27 25 control;
#X text 105 40 midi note nr;
#X obj 34 141 / 100;
#X text 97 120 1000ms/4 since quarter wavelength;
#X msg 34 119 250 \$1;
#X obj 34 166 s \$1/wg/delay;
#X obj 32 69 - 0;
#X obj 95 82 r \$1/detune;
#X text 179 83 for Bb clarinet or so.;
#X connect 0 0 8 0;
#X connect 1 0 6 0;
#X connect 4 0 7 0;
#X connect 6 0 4 0;
#X connect 8 0 1 0;
#X connect 9 0 8 1;
#X restore 275 131 pd control;
#X text 75 337 closed side;
#X obj 269 327 wg/damp/simple~ \$1/damp;
#X obj 318 260 wg/filt/pipebell~ \$1/pipebell;
#X obj 31 121 wg/blow/noise~ \$1/blow;
#X text 50 196 for slap shortcut expression;
#X obj 30 92 wg/blow/pressure~ \$1/blow;
#X obj 168 218 wg/wave/out~ \$1/wg 1.3;
#X obj 31 363 wg/wave/in~ \$1/wg 1000;
#X obj 483 311 outlet~;
#X text 72 177 TODO: a vibrato of some kind should be added...;
#X text 35 391 (c) GPL algorythmics \, acre \, winfried ritsch;
#X text 30 34 clarinet instrument with reed and blow;
#X text 76 71 add a pressure receiver;
#X obj 30 296 wg/reed/simple~ \$1/reed;
#X text 32 11 wg/clarinet/dsp~ <id>;
#X connect 4 0 17 0;
#X connect 5 0 1 0;
#X connect 7 0 15 0;
#X connect 8 0 23 0;
#X connect 11 0 17 1;
#X connect 12 0 0 0;
#X connect 13 0 23 0;
#X connect 15 0 13 0;
#X connect 16 0 23 1;
#X connect 16 1 11 0;
#X connect 16 1 12 0;
#X connect 23 0 4 0;
