#N canvas 723 390 412 266 10;
#X obj 33 178 vline~;
#X msg 33 157 0.2 10 \, 0 50 500;
#X obj 169 184 vline~;
#X msg 169 160 0.2 0 \, 0 500 20;
#X obj 169 139 r \$1/slap;
#X obj 33 136 r \$1/breath;
#X obj 33 201 outlet~;
#X obj 168 205 outlet~;
#X obj 33 60 r \$1/play;
#X obj 33 97 s \$1/breath;
#X obj 168 98 s \$1/slap;
#X text 40 37 simple preset for demo and test;
#X text 30 234 (c) GPL algorythmics \, acre \, winfried ritsch;
#X text 34 15 wg/clarinet/slap_and_breath <id>;
#X text 135 61 example play signal;
#X connect 0 0 6 0;
#X connect 1 0 0 0;
#X connect 2 0 7 0;
#X connect 3 0 2 0;
#X connect 4 0 3 0;
#X connect 5 0 1 0;
#X connect 8 0 9 0;
#X connect 8 0 10 0;
