#N canvas 1381 161 450 407 10;
#X msg 202 146 CRACK;
#X obj 167 209 limiter~ 1 2;
#X obj 167 101 loadbang;
#X msg 167 176 limit 100;
#X obj 109 243 *~;
#X obj 296 252 *~;
#X obj 110 296 outlet~;
#X obj 293 284 outlet~;
#X obj 108 129 inlet~;
#X obj 289 126 inlet~;
#X obj 110 205 z~ 9;
#X obj 295 199 z~ 9;
#X text 96 20 Simple crack limiter for experiments;
#X text 95 33 to limit the sum of excitation;
#X text 112 323 (c) GPL \, acre \, winfried ritsch;
#X text 97 2 wg/limiter/dsp~;
#X obj 167 123 t b b;
#X text 101 64 needs: zexy;
#X connect 0 0 1 0;
#X connect 1 0 4 1;
#X connect 1 0 5 1;
#X connect 2 0 16 0;
#X connect 3 0 1 0;
#X connect 4 0 6 0;
#X connect 5 0 7 0;
#X connect 8 0 1 0;
#X connect 8 0 10 0;
#X connect 9 0 1 1;
#X connect 9 0 11 0;
#X connect 10 0 4 0;
#X connect 11 0 5 0;
#X connect 16 0 3 0;
#X connect 16 1 0 0;
