#N canvas 239 271 532 595 10;
#X obj 35 532 outlet~;
#X obj 62 503 lop~ 3000;
#X obj 122 478 mtof;
#X obj 109 379 dbtorms;
#X obj 106 429 pack 0 20;
#X obj 106 452 line~;
#X obj 61 483 *~;
#X obj 109 358 r \$1/vol;
#X obj 168 409 r \$1/fadtime;
#X obj 275 405 * 1.27;
#X obj 275 427 + 10;
#X obj 275 449 max 10;
#X obj 275 383 r \$1/treble;
#X obj 73 64 r \$1/play;
#X obj 22 62 inlet;
#X obj 22 93 route bang float;
#X text 184 66 either float for trigger or vol;
#X text 56 554 (c) GPL \, acre winfried ritsch;
#X text 47 16 wg/excite/bow~ <id>;
#X text 46 35 simpled framed bow function generator;
#X obj 22 114 del 500;
#X obj 156 93 r \$1/dur;
#X obj 138 273 noise~;
#X obj 138 295 *~ 0.1;
#X text 214 348 100Hz-10kHz;
#X obj 213 275 threshold~ 0.5 0.1 0.1 0.1;
#X obj 49 295 -~ 0.5;
#X obj 49 317 *~ 2;
#X obj 303 217 r \$1/f/max;
#X obj 308 322 r \$1/f/min;
#X obj 22 178 pack 0 20;
#X obj 78 146 sel 0 1;
#X msg 95 181 0;
#X obj 95 203 s \$1/play;
#X obj 56 250 line~;
#X obj 49 273 phasor~ 10;
#X obj 213 297 random 1000;
#X obj 215 322 + 20;
#X obj 56 228 pack 0 1;
#X obj 211 140 switch~;
#X obj 109 401 f 0;
#X obj 303 239 min 1000;
#X obj 323 124 loadbang;
#X msg 324 146 1000;
#X obj 324 168 s \$1/f/max;
#X msg 404 148 20;
#X obj 404 170 s \$1/f/min;
#X obj 308 344 max 20;
#X obj 237 232 bng 15 250 50 0 empty empty empty 17 7 0 10 -262144
-1 -1;
#X obj 196 196 metro 1000;
#X msg 289 147 1;
#X text 184 492 does not sound well \, and should...;
#X connect 1 0 0 0;
#X connect 2 0 1 1;
#X connect 3 0 40 0;
#X connect 4 0 5 0;
#X connect 5 0 6 1;
#X connect 6 0 1 0;
#X connect 7 0 3 0;
#X connect 8 0 4 1;
#X connect 9 0 10 0;
#X connect 10 0 11 0;
#X connect 11 0 2 0;
#X connect 12 0 9 0;
#X connect 13 0 15 0;
#X connect 14 0 15 0;
#X connect 15 0 20 0;
#X connect 15 1 31 0;
#X connect 15 1 39 0;
#X connect 20 0 30 0;
#X connect 20 0 32 0;
#X connect 21 0 20 1;
#X connect 22 0 23 0;
#X connect 25 0 36 0;
#X connect 26 0 27 0;
#X connect 27 0 6 0;
#X connect 28 0 41 0;
#X connect 29 0 47 0;
#X connect 30 0 5 0;
#X connect 31 0 30 0;
#X connect 31 1 40 0;
#X connect 32 0 33 0;
#X connect 34 0 35 0;
#X connect 35 0 25 0;
#X connect 35 0 26 0;
#X connect 36 0 37 0;
#X connect 37 0 38 0;
#X connect 38 0 34 0;
#X connect 40 0 4 0;
#X connect 41 0 36 1;
#X connect 42 0 43 0;
#X connect 42 0 45 0;
#X connect 42 0 50 0;
#X connect 43 0 44 0;
#X connect 45 0 46 0;
#X connect 47 0 37 1;
#X connect 48 0 36 0;
#X connect 49 0 48 0;
#X connect 50 0 49 0;
