#N canvas 827 154 450 359 10;
#X obj 54 218 *~ 0;
#X msg 83 184 1;
#X msg 128 181 0;
#X obj 34 184 noise~;
#X obj 54 297 outlet~;
#X obj 132 158 delay \$2;
#X obj 55 276 lop~ 3000;
#X obj 115 251 mtof;
#X obj 84 136 t b b;
#X text 54 42 simpled framed noise burst;
#X obj 226 128 dbtorms;
#X obj 225 172 pack 0 20;
#X obj 225 204 line~;
#X obj 55 241 *~;
#X obj 226 99 r \$1/vol;
#X obj 307 115 r \$1/fadtime;
#X obj 224 257 * 1.27;
#X obj 224 279 + 10;
#X obj 224 301 max 10;
#X obj 224 235 r \$1/treble;
#X obj 146 120 r \$1/dur;
#X obj 73 64 r \$1/play;
#X obj 22 62 inlet;
#X obj 22 84 route bang float;
#X obj 77 108 t b f;
#X text 191 73 either float for trigger or vol;
#X text 49 327 (c) GPL \, acre winfried ritsch;
#X text 47 16 wg/excite/burst~ <id> <len>;
#X connect 0 0 13 0;
#X connect 1 0 0 1;
#X connect 2 0 0 1;
#X connect 3 0 0 0;
#X connect 5 0 2 0;
#X connect 6 0 4 0;
#X connect 7 0 6 1;
#X connect 8 0 1 0;
#X connect 8 1 5 0;
#X connect 8 1 11 0;
#X connect 10 0 11 0;
#X connect 11 0 12 0;
#X connect 12 0 13 1;
#X connect 13 0 6 0;
#X connect 14 0 10 0;
#X connect 15 0 11 1;
#X connect 16 0 17 0;
#X connect 17 0 18 0;
#X connect 18 0 7 0;
#X connect 19 0 16 0;
#X connect 20 0 5 1;
#X connect 21 0 23 0;
#X connect 22 0 23 0;
#X connect 23 0 8 0;
#X connect 23 1 24 0;
#X connect 24 0 8 0;
#X connect 24 1 12 0;
