#N canvas 731 76 579 300 10;
#X text 40 62 outlet of waveguide <wg-name> <length>;
#X obj 352 84 f \$2;
#X obj 352 104 max 1e-06;
#X obj 51 154 vd~ \$1/backward \$2;
#X obj 253 157 vd~ \$1/forward \$2;
#X text 86 180 Interpolated delreads;
#X text 83 234 NOTE: Output order reverse to waveout;
#X obj 51 85 r \$1/delay;
#X obj 351 123 s \$1/delay;
#X obj 353 63 wg/init/bang;
#X obj 50 128 line~;
#X obj 51 107 pack 0 5;
#X obj 130 87 r \$1/delay/fade;
#X msg 440 96 5;
#X obj 438 122 s \$1/delay/fade;
#X obj 54 40 inlet~;
#X text 104 39 orderforcing;
#X obj 49 203 outlet~;
#X obj 253 207 outlet~;
#X text 49 262 (c) GPL \, acre winfried ritsch;
#X text 46 8 wg/wave/out~ <id> <delaytime in ms>;
#X connect 1 0 2 0;
#X connect 2 0 8 0;
#X connect 3 0 17 0;
#X connect 4 0 18 0;
#X connect 7 0 11 0;
#X connect 9 0 1 0;
#X connect 9 0 13 0;
#X connect 10 0 3 0;
#X connect 10 0 4 0;
#X connect 11 0 10 0;
#X connect 12 0 11 1;
#X connect 13 0 14 0;
